<?xml version="1.0" standalone="no"?>
<!DOCTYPE svg PUBLIC "-//W3C//DTD SVG 20010904//EN"
 "http://www.w3.org/TR/2001/REC-SVG-20010904/DTD/svg10.dtd">
<svg version="1.0" xmlns="http://www.w3.org/2000/svg"
 width="646.000000pt" height="427.000000pt" viewBox="0 0 646.000000 427.000000"
 preserveAspectRatio="xMidYMid meet">

<g transform="translate(0.000000,427.000000) scale(0.100000,-0.100000)"
fill="#000000" stroke="none">
<path d="M2719 3239 c0 -2 -38 -170 -83 -374 l-83 -370 131 -6 c165 -8 275
-38 403 -110 29 -16 55 -29 58 -29 3 0 5 58 5 130 0 120 -2 132 -24 164 -56
84 -59 207 -8 307 27 51 32 73 32 129 l0 67 -47 25 c-76 41 -150 59 -270 65
-62 3 -113 4 -114 2z"/>
<path d="M3425 3233 c-56 -8 -140 -35 -187 -60 -47 -26 -48 -27 -48 -74 l0
-48 61 32 c54 28 71 32 138 31 90 -1 147 -23 211 -80 85 -77 122 -214 86 -320
-9 -26 -15 -48 -13 -48 1 -1 21 -16 45 -34 23 -19 42 -27 41 -20 0 7 -30 150
-68 318 l-67 305 -85 1 c-46 1 -97 -1 -114 -3z"/>
<path d="M2481 2750 c-40 -199 -70 -364 -67 -367 3 -3 173 -36 378 -74 l373
-69 255 45 c140 26 258 47 262 48 3 1 -15 26 -40 55 l-47 53 -85 -20 c-89 -20
-254 -77 -309 -105 -29 -15 -33 -15 -69 3 -145 74 -416 137 -552 128 l-86 -5
74 324 c41 179 73 327 71 328 -2 2 -22 7 -45 10 l-41 7 -72 -361z"/>
<path d="M3723 3103 c-13 -2 -23 -7 -23 -11 0 -4 28 -128 61 -275 l62 -269 41
-38 c23 -21 42 -35 44 -31 2 7 -97 534 -115 609 -5 22 -18 25 -70 15z"/>
<path d="M3320 3061 c-113 -37 -189 -138 -190 -250 0 -75 17 -125 62 -176 52
-59 116 -89 192 -89 78 0 129 17 179 63 137 123 107 348 -58 433 -43 22 -144
33 -185 19z m158 -82 c62 -30 102 -95 102 -165 0 -65 -10 -92 -50 -138 -23
-25 -48 -41 -86 -52 -49 -14 -59 -14 -107 0 -56 16 -108 61 -126 109 -6 16
-11 52 -11 81 0 139 148 227 278 165z"/>
<path d="M3595 2600 c-26 -28 -28 -32 -15 -56 21 -38 158 -200 227 -267 32
-31 73 -61 90 -66 59 -17 104 31 89 95 -10 44 -314 324 -351 324 -6 0 -24 -13
-40 -30z"/>
<path d="M3190 2455 l0 -105 80 40 c87 44 219 90 256 90 29 0 36 11 20 32 -11
15 -16 15 -52 3 -21 -8 -71 -14 -110 -15 -60 0 -81 5 -130 30 -32 16 -60 30
-61 30 -2 0 -3 -47 -3 -105z"/>
<path d="M2050 1925 c0 -54 0 -55 30 -55 l30 0 0 -82 c0 -81 0 -81 -20 -63
-14 12 -41 20 -78 23 -119 7 -203 -75 -210 -207 -9 -147 57 -248 167 -259 63
-6 92 2 130 34 l31 26 0 -26 0 -26 90 0 90 0 0 55 c0 52 -1 55 -25 55 l-25 0
0 290 0 290 -105 0 -105 0 0 -55z m20 -295 c44 -24 50 -175 9 -219 -28 -29
-84 -29 -103 2 -32 51 -27 167 10 208 19 21 55 25 84 9z"/>
<path d="M3652 1973 c-16 -6 -42 -56 -42 -82 0 -11 12 -33 26 -50 43 -51 119
-41 144 18 25 61 -14 122 -77 120 -21 0 -44 -3 -51 -6z"/>
<path d="M1224 1916 c-3 -7 -4 -33 -2 -57 3 -42 5 -44 36 -47 l32 -3 0 -205 0
-204 -35 0 -35 0 0 -55 0 -55 255 0 255 0 0 110 0 111 -57 -3 -58 -3 -3 -47
-3 -48 -80 0 -79 0 0 70 0 70 90 0 90 0 0 60 0 60 -90 0 -90 0 0 65 0 65 80 0
80 0 0 -40 0 -40 60 0 61 0 -3 103 -3 102 -248 3 c-205 2 -248 0 -253 -12z"/>
<path d="M2904 1916 c-3 -7 -4 -33 -2 -57 3 -39 6 -44 28 -47 24 -3 33 -22
121 -260 l95 -257 75 -3 75 -3 96 258 c90 243 97 258 122 261 25 3 26 6 26 63
l0 59 -130 0 -130 0 0 -60 c0 -59 0 -60 29 -60 l28 0 -42 -117 c-24 -65 -49
-131 -55 -148 -11 -29 -13 -26 -66 115 -29 80 -54 146 -54 148 0 1 14 2 30 2
l30 0 0 60 0 60 -135 0 c-106 0 -137 -3 -141 -14z"/>
<path d="M4390 1831 c0 -16 -3 -43 -6 -60 -6 -27 -10 -31 -40 -31 l-34 0 0
-55 0 -55 35 0 35 0 0 -117 c0 -131 12 -170 63 -207 22 -16 43 -21 97 -21 59
0 72 3 95 25 30 27 55 71 55 94 0 8 -20 21 -47 30 -58 20 -52 21 -63 -10 -7
-16 -16 -24 -28 -22 -15 3 -17 18 -20 116 l-3 112 61 0 60 0 0 55 0 55 -60 0
-60 0 0 60 0 60 -70 0 -70 0 0 -29z"/>
<path d="M3975 1731 c-59 -27 -78 -53 -83 -116 -4 -53 -3 -56 35 -94 30 -31
56 -44 117 -62 43 -12 80 -29 83 -37 14 -35 -77 -45 -101 -11 -15 22 -21 22
-118 3 -55 -11 -26 -82 46 -115 81 -37 246 -17 296 36 17 18 25 40 28 79 4 50
2 56 -29 90 -26 28 -54 42 -119 63 -92 30 -116 56 -64 69 21 6 31 2 46 -15 17
-22 20 -22 88 -11 65 11 70 14 70 37 0 33 -47 79 -96 92 -60 17 -153 13 -199
-8z"/>
<path d="M4824 1734 c-50 -18 -82 -50 -90 -90 l-6 -31 76 -15 c70 -14 76 -14
76 1 0 25 20 41 52 41 21 0 31 -6 38 -26 17 -43 12 -54 -20 -54 -49 0 -133
-21 -168 -42 -87 -53 -82 -176 8 -223 56 -29 153 -14 189 29 12 14 16 13 42
-9 30 -24 82 -40 115 -33 12 2 21 20 30 58 7 30 13 56 14 57 0 1 -10 3 -22 5
-22 3 -23 8 -29 124 -7 141 -21 173 -84 204 -50 24 -159 26 -221 4z m156 -282
c0 -45 -65 -87 -96 -61 -36 30 3 79 63 79 25 0 33 -4 33 -18z"/>
<path d="M2340 1685 c0 -51 2 -55 24 -55 23 0 24 -1 28 -127 3 -77 10 -139 18
-156 43 -88 195 -91 262 -5 l18 23 0 -37 0 -38 95 0 95 0 0 55 c0 52 -1 55
-25 55 l-25 0 0 170 0 170 -105 0 -105 0 0 -55 c0 -54 0 -55 30 -55 l30 0 0
-62 c0 -71 -20 -121 -60 -150 -31 -23 -58 -15 -71 19 -5 13 -9 87 -9 164 l0
139 -100 0 -100 0 0 -55z"/>
<path d="M3570 1685 l0 -55 35 0 35 0 0 -115 0 -115 -25 0 c-24 0 -25 -3 -25
-55 l0 -55 125 0 125 0 0 55 c0 52 -1 55 -25 55 l-25 0 0 170 0 170 -110 0
-110 0 0 -55z"/>
<path d="M1786 1141 c-14 -15 -15 -24 -6 -40 6 -12 15 -21 21 -21 6 0 3 7 -6
16 -18 19 -16 33 7 48 12 7 21 6 32 -3 20 -17 20 -26 0 -45 -8 -9 -11 -16 -5
-16 6 0 15 9 21 21 9 16 8 25 -6 40 -9 10 -22 19 -29 19 -7 0 -20 -9 -29 -19z"/>
<path d="M1974 1126 c1 -26 6 -41 16 -43 10 -3 11 -2 3 4 -6 4 -13 24 -16 43
-4 34 -4 33 -3 -4z"/>
<path d="M2151 1118 c1 -24 3 -35 6 -25 5 18 5 18 20 0 8 -10 12 -12 8 -6 -3
7 -1 21 4 31 11 21 -2 42 -26 42 -9 0 -13 -14 -12 -42z m31 17 c0 -5 -5 -11
-11 -13 -6 -2 -11 4 -11 13 0 9 5 15 11 13 6 -2 11 -8 11 -13z"/>
<path d="M2629 1143 c-13 -16 -12 -17 3 -4 10 7 25 11 33 7 9 -3 13 -2 10 4
-10 15 -31 12 -46 -7z"/>
<path d="M2982 1118 l1 -43 4 38 c3 29 8 37 21 35 21 -4 28 -47 10 -60 -10 -8
-10 -9 2 -5 19 5 25 44 10 63 -7 7 -21 14 -31 14 -16 0 -19 -7 -17 -42z"/>
<path d="M3161 1118 c0 -24 3 -36 6 -28 3 8 11 18 17 22 8 5 7 8 -1 8 -20 0
-15 28 5 33 13 4 11 5 -5 6 -21 1 -23 -4 -22 -41z"/>
<path d="M3311 1118 c1 -35 2 -38 8 -18 l7 25 13 -23 c11 -21 31 -22 31 -1 0
6 -4 8 -10 4 -5 -3 -16 8 -25 25 -8 16 -18 30 -20 30 -3 0 -5 -19 -4 -42z"/>
<path d="M3513 1120 c0 -25 2 -35 4 -22 2 12 2 32 0 45 -2 12 -4 2 -4 -23z"/>
<path d="M3646 1141 c-14 -15 -15 -24 -6 -40 6 -12 15 -21 21 -21 6 0 3 7 -5
16 -9 8 -16 19 -16 23 0 16 30 33 45 27 9 -3 13 -2 10 4 -10 16 -30 12 -49 -9z"/>
<path d="M3960 1151 c0 -5 9 -7 20 -4 11 3 20 7 20 9 0 2 -9 4 -20 4 -11 0
-20 -4 -20 -9z"/>
<path d="M4111 1118 c1 -24 3 -35 6 -25 4 17 6 17 16 3 10 -14 12 -10 12 21 0
28 -5 39 -17 41 -15 3 -18 -4 -17 -40z m29 17 c0 -8 -4 -15 -10 -15 -5 0 -10
7 -10 15 0 8 5 15 10 15 6 0 10 -7 10 -15z"/>
<path d="M4391 1118 c1 -24 3 -35 6 -26 2 9 12 19 21 21 15 4 15 5 0 6 -10 0
-18 7 -18 15 0 8 8 17 18 19 13 4 11 5 -5 6 -21 1 -23 -3 -22 -41z"/>
<path d="M4590 1133 l0 -28 -20 25 c-11 14 -20 21 -20 15 0 -5 11 -23 25 -40
l24 -30 1 43 c0 23 -2 42 -5 42 -3 0 -5 -12 -5 -27z"/>
<path d="M4722 1118 l1 -43 4 38 c3 29 8 37 21 35 21 -4 28 -47 10 -60 -10 -8
-10 -9 2 -5 19 5 25 44 10 63 -7 7 -21 14 -31 14 -16 0 -19 -7 -17 -42z"/>
<path d="M1626 1142 c3 -8 9 -24 13 -38 6 -22 7 -22 18 13 9 30 9 35 -1 21
-11 -15 -13 -15 -24 0 -7 9 -10 11 -6 4z"/>
<path d="M2019 1118 c-3 -22 -1 -34 4 -29 5 5 7 21 5 37 -3 27 -4 26 -9 -8z"/>
<path d="M2450 1120 c-7 -17 -10 -33 -6 -37 3 -3 6 -1 6 5 0 16 33 15 49 0 7
-8 5 3 -5 25 -10 20 -21 37 -25 37 -3 0 -12 -14 -19 -30z m30 0 c0 -5 -4 -10
-10 -10 -5 0 -10 5 -10 10 0 6 5 10 10 10 6 0 10 -4 10 -10z"/>
<path d="M2810 1120 c-7 -17 -10 -33 -6 -37 3 -3 6 -1 6 5 0 7 9 12 20 12 11
0 20 -5 20 -12 0 -6 3 -8 6 -5 8 8 -15 67 -26 67 -4 0 -13 -14 -20 -30z m30 0
c0 -5 -4 -10 -10 -10 -5 0 -10 5 -10 10 0 6 5 10 10 10 6 0 10 -4 10 -10z"/>
<path d="M3378 1138 c-3 -7 -1 -24 3 -38 6 -22 7 -20 8 13 1 38 -3 47 -11 25z"/>
<path d="M4263 1115 c0 -22 2 -30 4 -17 2 12 2 30 0 40 -3 9 -5 -1 -4 -23z"/>
<path d="M3960 1120 c0 -6 7 -10 15 -10 8 0 15 2 15 4 0 2 -7 6 -15 10 -8 3
-15 1 -15 -4z"/>
<path d="M2620 1100 c6 -11 15 -20 20 -20 6 0 2 9 -7 20 -10 11 -19 20 -21 20
-1 0 2 -9 8 -20z"/>
</g>
</svg>
